<?xml version="1.0" encoding="UTF-8"?>
<svg id="Camada_1" xmlns="http://www.w3.org/2000/svg" viewBox="0 0 288.87 464.28">
  <defs>
    <style>
      .cls-1, .cls-2 {
        fill: #fff;
      }

      .cls-2 {
        fill-rule: evenodd;
      }
    </style>
  </defs>
  <g>
    <path class="cls-1" d="M153.31,385.94v23.98c10.42,2.34,19.39,7.1,26.35,15.22,7.31,8.53,11.25,18.39,11.37,29.66.06,5.95-3.21,9.39-9.19,9.41-24.83.08-49.65.09-74.48,0-6.31-.02-9.46-3.82-9.23-10.44.67-19.28,13.94-36.56,32.57-42.38,1.59-.5,3.2-.9,5.07-1.43v-24.85c-5.35.72-10.55,1.78-15.79,2.06-18.86,1-33-7.53-43.56-22.56-2.95-4.2-5.44-8.77-7.7-13.39-2.11-4.31-.94-8.92,3.03-10.88,17.99-8.91,40.1-12.83,58.35.15,5.36,3.81,9.81,8.9,14.97,13.67,1.03-1.2,2.4-2.8,3.78-4.39,13.42-15.45,30.28-20.46,49.97-16.01,5.8,1.31,11.47,3.43,17,5.67,4.95,2.01,7.1,6.47,5.04,10.96-8.4,18.34-20.28,33.29-41.74,36.21-8.23,1.12-16.8-.35-25.81-.66Z"/>
    <g>
      <path class="cls-1" d="M99.43,291.36c-.07-7.5,6.49-11.76,12.02-9.13,1.61.77,3.02,2.04,4.39,3.23,16.64,14.51,40.42,14.44,57.03-.08,1.83-1.6,4.01-3.21,6.28-3.78,3.77-.95,6.89.87,8.76,4.25,2.01,3.64,1.39,7.18-1.55,10.05-13.58,13.23-29.9,18.97-48.71,17.04-13.32-1.37-24.98-6.79-34.59-16.2-1.8-1.76-2.87-4.25-3.62-5.39Z"/>
      <path class="cls-1" d="M122.91,265.05c1.76-2.26,3.08-5.5,5.35-6.45,2.5-1.04,6.7-1.1,8.71.38,5.34,3.96,9.66,3.91,14.75-.23,3.47-2.83,8.4-1.76,11.16,1.58,2.62,3.17,2.53,7.65-.22,10.98-8.42,10.21-27.91,10.37-36.52.17-1.32-1.56-1.9-3.74-3.23-6.44Z"/>
    </g>
  </g>
  <g id="SVGRepo_iconCarrier">
    <g>
      <path class="cls-2" d="M109.55,203.08c-8.13-.01-8.1,32.56,0,32.55h71.83c8.14.01,8.11-32.56.02-32.56h-71.85Z"/>
      <path class="cls-2" d="M160.14,32.02c5.21.01,9.46-7.17,9.47-16-.01-8.85-4.25-16-9.5-16.02h-30.66c-5.24,0-9.45,7.15-9.45,15.99-.04,8.85,4.24,16.03,9.45,16.02h30.68Z"/>
      <rect class="cls-1" x="255.6" y="83.7" width="33.26" height="84.49"/>
      <path class="cls-2" d="M84.58,168.32l.04-34.41h17.79s-.01,39.11-.01,39.11c0,6.52,5.4,11.83,12.09,11.8h60.17c6.61,0,11.98-5.3,12-11.8v-39.11s17.68,0,17.68,0v34.39s33.56-.01,33.56-.01v-84.18s-33.54-.01-33.54-.01v34.03s-17.71,0-17.71,0v-39.23c-.02-6.51-5.39-11.83-12-11.82l-60.16.02c-6.64,0-12.07,5.31-12.05,11.81v39.23h-17.8s.04-34.05.04-34.05h-33.26v84.2l33.16.04h0Z"/>
      <rect class="cls-1" x=".04" y="83.65" width="33.71" height="84.57"/>
    </g>
  </g>
</svg>