<!DOCTYPE svg PUBLIC "-//W3C//DTD SVG 1.1//EN" "http://www.w3.org/Graphics/SVG/1.1/DTD/svg11.dtd">
<!-- Uploaded to: SVG Repo, www.svgrepo.com, Transformed by: SVG Repo Mixer Tools -->
<svg width="800px" height="800px" viewBox="0 0 24 24" fill="none" xmlns="http://www.w3.org/2000/svg">
<g id="SVGRepo_bgCarrier" stroke-width="0"/>
<g id="SVGRepo_tracerCarrier" stroke-linecap="round" stroke-linejoin="round"/>
<g id="SVGRepo_iconCarrier">
<path fill-rule="evenodd" clip-rule="evenodd" d="m3.517 17 7.058-11.783a1.667 1.667 0 0 1 2.85 0L20.483 17a1.667 1.667 0 0 1-1.425 2.5H4.942A1.666 1.666 0 0 1 3.517 17ZM12 9a1 1 0 0 1 1 1v3a1 1 0 1 1-2 0v-3a1 1 0 0 1 1-1Zm-1 7a1 1 0 0 1 1-1h.008a1 1 0 1 1 0 2H12a1 1 0 0 1-1-1Z" fill="#49db7e"/>
</g>
</svg>